<?xml version="1.0" encoding="UTF-8"?>
<svg xmlns="http://www.w3.org/2000/svg" xmlns:xlink="http://www.w3.org/1999/xlink" width="402.191986pt" height="402.191986pt" viewBox="0 0 402.191986 402.191986" version="1.1">
<g id="surface1">
<path style=" stroke:none;fill-rule:nonzero;fill:rgb(55%,55%,55%);fill-opacity:1;" d="M 347.652344 140.445312 C 347.09375 139.101562 342.863281 136.789062 331.382812 136.789062 C 324.257812 136.789062 314.34375 137.675781 300.78125 140.242188 C 269.917969 146.066406 230.71875 158.472656 190.40625 175.171875 C 150.09375 191.871094 113.601562 210.816406 87.664062 228.523438 C 57.886719 248.839844 53.761719 259.628906 54.664062 261.808594 C 56.046875 265.167969 70.300781 268.089844 103.167969 261.707031 C 102.210938 260.164062 101.289062 258.597656 100.40625 257.007812 C 100.375 256.953125 100.34375 256.894531 100.3125 256.839844 C 99.941406 256.171875 99.582031 255.5 99.222656 254.824219 L 99.039062 254.476562 C 98.707031 253.839844 98.378906 253.199219 98.058594 252.554688 L 97.820312 252.082031 C 97.515625 251.464844 97.214844 250.84375 96.921875 250.222656 C 96.832031 250.035156 96.746094 249.851562 96.660156 249.664062 C 96.378906 249.058594 96.101562 248.453125 95.828125 247.839844 C 95.738281 247.632812 95.648438 247.425781 95.558594 247.222656 C 95.292969 246.621094 95.03125 246.015625 94.777344 245.40625 C 94.777344 245.402344 94.773438 245.398438 94.773438 245.394531 C 99.1875 237.160156 121.90625 222.460938 153.976562 206.699219 C 166.609375 200.492188 180.695312 194.117188 195.679688 187.910156 C 248.703125 165.945312 295.207031 153.441406 307.675781 157.203125 C 309.992188 162.8125 311.878906 168.644531 313.289062 174.660156 C 341.035156 155.929688 349.039062 143.789062 347.652344 140.445312 Z M 347.652344 140.445312 "/>
<path style=" stroke:none;fill-rule:nonzero;fill:rgb(81%,81%,81%);fill-opacity:1;" d="M 223.726562 88.113281 C 224.46875 88.261719 225.203125 88.417969 225.9375 88.578125 C 225.203125 88.417969 224.46875 88.261719 223.726562 88.113281 Z M 223.726562 88.113281 "/>
<path style=" stroke:none;fill-rule:nonzero;fill:rgb(81%,81%,81%);fill-opacity:1;" d="M 229.050781 89.308594 C 229.886719 89.515625 230.714844 89.730469 231.539062 89.957031 C 230.714844 89.730469 229.886719 89.515625 229.050781 89.308594 Z M 229.050781 89.308594 "/>
<path style=" stroke:none;fill-rule:nonzero;fill:rgb(81%,81%,81%);fill-opacity:1;" d="M 226.410156 88.683594 C 227.195312 88.859375 227.976562 89.042969 228.753906 89.234375 C 227.972656 89.042969 227.195312 88.859375 226.410156 88.683594 Z M 226.410156 88.683594 "/>
<path style=" stroke:none;fill-rule:nonzero;fill:rgb(81%,81%,81%);fill-opacity:1;" d="M 316.316406 203.398438 C 316.332031 202.632812 316.34375 201.863281 316.34375 201.097656 C 316.34375 200.46875 316.328125 199.84375 316.316406 199.21875 C 316.304688 199.222656 316.296875 199.230469 316.289062 199.234375 C 316.246094 196.753906 316.117188 194.292969 315.917969 191.855469 C 315.929688 191.84375 315.941406 191.839844 315.953125 191.832031 C 315.46875 185.988281 314.546875 180.269531 313.21875 174.707031 C 313.242188 174.691406 313.265625 174.671875 313.292969 174.65625 C 311.878906 168.640625 309.992188 162.808594 307.679688 157.199219 C 295.210938 153.441406 248.703125 165.945312 195.679688 187.90625 C 180.695312 194.113281 166.613281 200.488281 153.980469 206.695312 C 152.179688 214.78125 151.226562 223.1875 151.226562 231.816406 C 151.226562 264.75 165.066406 294.433594 187.226562 315.429688 C 167.175781 313.011719 148.710938 305.441406 133.195312 294.09375 L 133.164062 294.097656 C 152.21875 308.050781 175.71875 316.296875 201.144531 316.296875 C 258.75 316.296875 306.480469 274.011719 314.992188 218.789062 C 314.9375 218.820312 314.886719 218.851562 314.832031 218.886719 C 315.621094 213.808594 316.183594 208.660156 316.316406 203.398438 Z M 316.316406 203.398438 "/>
<path style=" stroke:none;fill-rule:nonzero;fill:rgb(81%,81%,81%);fill-opacity:1;" d="M 269.085938 108.0625 C 257.957031 99.921875 245.3125 93.730469 231.652344 89.988281 C 245.300781 93.734375 257.925781 99.933594 269.046875 108.074219 C 269.0625 108.070312 269.074219 108.066406 269.085938 108.0625 Z M 269.085938 108.0625 "/>
<path style=" stroke:none;fill-rule:nonzero;fill:rgb(81%,81%,81%);fill-opacity:1;" d="M 218.261719 87.164062 C 218.914062 87.261719 219.558594 87.367188 220.203125 87.472656 C 219.558594 87.367188 218.914062 87.261719 218.261719 87.164062 Z M 218.261719 87.164062 "/>
<path style=" stroke:none;fill-rule:nonzero;fill:rgb(81%,81%,81%);fill-opacity:1;" d="M 215.480469 86.78125 C 216.089844 86.859375 216.695312 86.945312 217.300781 87.03125 C 216.695312 86.945312 216.089844 86.859375 215.480469 86.78125 Z M 215.480469 86.78125 "/>
<path style=" stroke:none;fill-rule:nonzero;fill:rgb(81%,81%,81%);fill-opacity:1;" d="M 212.667969 86.46875 C 213.234375 86.523438 213.796875 86.589844 214.359375 86.65625 C 213.796875 86.589844 213.234375 86.523438 212.667969 86.46875 Z M 212.667969 86.46875 "/>
<path style=" stroke:none;fill-rule:nonzero;fill:rgb(81%,81%,81%);fill-opacity:1;" d="M 209.828125 86.21875 C 210.34375 86.257812 210.859375 86.308594 211.375 86.351562 C 210.859375 86.308594 210.34375 86.257812 209.828125 86.21875 Z M 209.828125 86.21875 "/>
<path style=" stroke:none;fill-rule:nonzero;fill:rgb(81%,81%,81%);fill-opacity:1;" d="M 204.0625 85.933594 C 204.425781 85.941406 204.78125 85.960938 205.140625 85.972656 C 204.78125 85.960938 204.425781 85.941406 204.0625 85.933594 Z M 204.0625 85.933594 "/>
<path style=" stroke:none;fill-rule:nonzero;fill:rgb(81%,81%,81%);fill-opacity:1;" d="M 206.960938 86.042969 C 207.417969 86.066406 207.871094 86.097656 208.328125 86.125 C 207.871094 86.097656 207.417969 86.066406 206.960938 86.042969 Z M 206.960938 86.042969 "/>
<path style=" stroke:none;fill-rule:nonzero;fill:rgb(81%,81%,81%);fill-opacity:1;" d="M 221.015625 87.609375 C 221.707031 87.730469 222.398438 87.859375 223.089844 87.992188 C 222.398438 87.859375 221.707031 87.730469 221.015625 87.609375 Z M 221.015625 87.609375 "/>
<path style=" stroke:none;fill-rule:nonzero;fill:rgb(81%,81%,81%);fill-opacity:1;" d="M 103.171875 261.703125 C 102.214844 260.160156 101.292969 258.597656 100.40625 257.007812 C 101.292969 258.597656 102.210938 260.164062 103.167969 261.703125 C 103.167969 261.703125 103.171875 261.703125 103.171875 261.703125 Z M 103.171875 261.703125 "/>
<path style=" stroke:none;fill-rule:nonzero;fill:rgb(81%,81%,81%);fill-opacity:1;" d="M 95.828125 247.835938 C 96.101562 248.449219 96.378906 249.058594 96.660156 249.664062 C 96.378906 249.058594 96.101562 248.449219 95.828125 247.835938 Z M 95.828125 247.835938 "/>
<path style=" stroke:none;fill-rule:nonzero;fill:rgb(81%,81%,81%);fill-opacity:1;" d="M 98.058594 252.554688 C 98.378906 253.199219 98.707031 253.835938 99.039062 254.472656 C 98.707031 253.835938 98.378906 253.199219 98.058594 252.554688 Z M 98.058594 252.554688 "/>
<path style=" stroke:none;fill-rule:nonzero;fill:rgb(81%,81%,81%);fill-opacity:1;" d="M 99.222656 254.824219 C 99.582031 255.5 99.941406 256.171875 100.3125 256.839844 C 99.941406 256.171875 99.582031 255.5 99.222656 254.824219 Z M 99.222656 254.824219 "/>
<path style=" stroke:none;fill-rule:nonzero;fill:rgb(81%,81%,81%);fill-opacity:1;" d="M 96.921875 250.21875 C 97.214844 250.84375 97.515625 251.464844 97.824219 252.082031 C 97.515625 251.464844 97.21875 250.84375 96.921875 250.21875 Z M 96.921875 250.21875 "/>
<path style=" stroke:none;fill-rule:nonzero;fill:rgb(81%,81%,81%);fill-opacity:1;" d="M 94.78125 245.40625 C 95.035156 246.015625 95.296875 246.617188 95.558594 247.21875 C 95.296875 246.617188 95.035156 246.011719 94.78125 245.40625 Z M 94.78125 245.40625 "/>
<path style=" stroke:none;fill-rule:nonzero;fill:rgb(70%,70%,70%);fill-opacity:1;" d="M 151.226562 231.816406 C 151.226562 223.1875 152.179688 214.785156 153.980469 206.699219 C 121.910156 222.460938 99.1875 237.160156 94.773438 245.390625 C 94.777344 245.394531 94.777344 245.402344 94.78125 245.40625 C 95.035156 246.011719 95.296875 246.617188 95.558594 247.21875 C 95.648438 247.425781 95.738281 247.632812 95.828125 247.835938 C 96.101562 248.449219 96.378906 249.058594 96.664062 249.664062 C 96.75 249.847656 96.835938 250.035156 96.921875 250.21875 C 97.21875 250.84375 97.519531 251.464844 97.824219 252.082031 L 98.058594 252.554688 C 98.378906 253.195312 98.707031 253.835938 99.039062 254.472656 C 99.101562 254.589844 99.164062 254.707031 99.226562 254.824219 C 99.582031 255.5 99.945312 256.171875 100.3125 256.835938 C 100.34375 256.894531 100.378906 256.949219 100.410156 257.007812 C 101.292969 258.597656 102.21875 260.160156 103.171875 261.703125 C 103.214844 261.695312 103.253906 261.6875 103.296875 261.679688 C 106.316406 266.550781 109.691406 271.171875 113.378906 275.523438 C 113.425781 275.511719 113.472656 275.503906 113.519531 275.492188 C 115.097656 277.347656 116.691406 279.179688 118.378906 280.929688 C 118.347656 280.9375 118.320312 280.941406 118.285156 280.949219 C 122.894531 285.738281 127.910156 290.132812 133.289062 294.070312 C 133.257812 294.078125 133.226562 294.082031 133.195312 294.089844 C 148.714844 305.441406 167.175781 313.011719 187.226562 315.425781 C 165.066406 294.433594 151.226562 264.75 151.226562 231.816406 Z M 151.226562 231.816406 "/>
<path style=" stroke:none;fill-rule:nonzero;fill:rgb(70%,70%,70%);fill-opacity:1;" d="M 269.046875 108.074219 C 257.925781 99.933594 245.300781 93.734375 231.652344 89.988281 C 231.617188 89.976562 231.578125 89.96875 231.539062 89.957031 C 230.714844 89.730469 229.886719 89.515625 229.050781 89.308594 C 228.953125 89.28125 228.851562 89.257812 228.753906 89.234375 C 227.972656 89.042969 227.195312 88.859375 226.410156 88.683594 C 226.253906 88.648438 226.09375 88.613281 225.9375 88.578125 C 225.203125 88.417969 224.46875 88.261719 223.726562 88.117188 C 223.515625 88.074219 223.300781 88.035156 223.089844 87.992188 C 222.398438 87.859375 221.707031 87.730469 221.015625 87.609375 C 220.746094 87.5625 220.472656 87.519531 220.203125 87.476562 C 219.558594 87.367188 218.914062 87.261719 218.261719 87.164062 C 217.941406 87.117188 217.621094 87.074219 217.300781 87.03125 C 216.695312 86.945312 216.089844 86.859375 215.480469 86.785156 C 215.105469 86.738281 214.730469 86.699219 214.359375 86.65625 C 213.796875 86.59375 213.234375 86.527344 212.667969 86.46875 C 212.238281 86.425781 211.804688 86.394531 211.375 86.355469 C 210.859375 86.308594 210.34375 86.261719 209.828125 86.222656 C 209.328125 86.183594 208.828125 86.15625 208.328125 86.128906 C 207.871094 86.097656 207.417969 86.066406 206.960938 86.042969 C 206.355469 86.011719 205.746094 85.996094 205.140625 85.972656 C 204.78125 85.960938 204.425781 85.945312 204.0625 85.933594 C 203.09375 85.910156 202.121094 85.898438 201.144531 85.898438 C 143.519531 85.898438 95.78125 128.207031 87.289062 183.453125 C 114.0625 167.292969 144.636719 152.027344 175.519531 139.234375 C 207.667969 125.917969 239.582031 115.324219 269.046875 108.074219 Z M 269.046875 108.074219 "/>
<path style=" stroke:none;fill-rule:nonzero;fill:rgb(66%,66%,66%);fill-opacity:1;" d="M 400.355469 118.582031 L 400.355469 118.578125 C 392.871094 100.507812 365.332031 93.597656 320.730469 98.554688 C 304.824219 100.328125 287.429688 103.550781 269.085938 108.0625 C 269.074219 108.066406 269.0625 108.070312 269.046875 108.070312 C 239.582031 115.324219 207.667969 125.914062 175.519531 139.234375 C 144.636719 152.023438 114.0625 167.289062 87.289062 183.453125 C 30.332031 217.835938 -9.390625 256.277344 1.933594 283.613281 C 7.851562 297.890625 27.0625 305.144531 56.449219 305.144531 C 77.273438 305.144531 103.246094 301.464844 133.164062 294.101562 L 133.195312 294.09375 C 133.226562 294.085938 133.253906 294.078125 133.285156 294.070312 C 127.910156 290.132812 122.894531 285.738281 118.285156 280.953125 C 96.59375 285.726562 77.414062 288.238281 62.140625 288.238281 C 42.027344 288.238281 28.621094 283.945312 24.902344 274.9375 C 14.421875 249.539062 85.003906 196.308594 182.558594 156.042969 C 245.519531 130.054688 304.332031 115.816406 340.941406 115.816406 L 340.949219 115.816406 C 361.058594 115.816406 374.464844 120.113281 378.179688 129.117188 C 384.71875 144.957031 359.71875 171.621094 316.316406 199.21875 C 316.328125 199.84375 316.34375 200.46875 316.34375 201.097656 C 316.34375 201.867188 316.332031 202.632812 316.316406 203.398438 C 316.183594 208.660156 315.621094 213.808594 314.832031 218.886719 C 314.886719 218.851562 314.9375 218.820312 314.992188 218.789062 C 378.527344 180.335938 410.441406 142.949219 400.355469 118.582031 Z M 400.355469 118.582031 "/>
<path style=" stroke:none;fill-rule:nonzero;fill:rgb(66%,66%,66%);fill-opacity:1;" d="M 185.003906 161.957031 C 79.226562 205.617188 23.914062 255.765625 30.820312 272.496094 C 33.269531 278.433594 44.6875 281.839844 62.140625 281.839844 C 76.484375 281.839844 93.933594 279.628906 113.378906 275.523438 C 109.691406 271.175781 106.316406 266.550781 103.292969 261.679688 C 103.253906 261.6875 103.214844 261.695312 103.171875 261.703125 C 103.171875 261.703125 103.167969 261.703125 103.167969 261.703125 C 70.300781 268.085938 56.050781 265.167969 54.664062 261.808594 C 53.761719 259.628906 57.886719 248.839844 87.664062 228.523438 C 113.601562 210.816406 150.09375 191.871094 190.40625 175.171875 C 230.71875 158.472656 269.917969 146.066406 300.78125 140.238281 C 314.34375 137.675781 324.257812 136.789062 331.382812 136.789062 C 342.863281 136.789062 347.09375 139.101562 347.652344 140.445312 C 349.039062 143.789062 341.035156 155.929688 313.292969 174.65625 C 313.265625 174.671875 313.242188 174.691406 313.21875 174.707031 C 314.546875 180.269531 315.46875 185.988281 315.953125 191.832031 C 356.832031 165.226562 376.554688 141.949219 372.265625 131.558594 C 369.8125 125.621094 358.398438 122.214844 340.949219 122.214844 L 340.949219 115.816406 L 340.941406 122.214844 C 303.582031 122.21875 245.289062 137.074219 185.003906 161.957031 Z M 185.003906 161.957031 "/>
<path style=" stroke:none;fill-rule:nonzero;fill:rgb(55%,55%,55%);fill-opacity:1;" d="M 113.519531 275.492188 C 113.472656 275.503906 113.425781 275.511719 113.378906 275.523438 C 93.933594 279.628906 76.484375 281.839844 62.140625 281.839844 C 44.6875 281.839844 33.269531 278.433594 30.820312 272.496094 C 23.914062 255.765625 79.226562 205.617188 185.003906 161.957031 C 245.289062 137.074219 303.582031 122.21875 340.941406 122.214844 L 340.949219 115.816406 L 340.941406 115.816406 C 304.332031 115.816406 245.519531 130.054688 182.558594 156.042969 C 85.003906 196.308594 14.421875 249.542969 24.902344 274.9375 C 28.621094 283.945312 42.027344 288.242188 62.140625 288.242188 C 77.414062 288.242188 96.59375 285.726562 118.285156 280.953125 C 118.316406 280.945312 118.347656 280.9375 118.378906 280.933594 C 116.691406 279.179688 115.09375 277.347656 113.519531 275.492188 Z M 113.519531 275.492188 "/>
<path style=" stroke:none;fill-rule:nonzero;fill:rgb(55%,55%,55%);fill-opacity:1;" d="M 372.265625 131.558594 C 376.554688 141.949219 356.832031 165.226562 315.953125 191.832031 C 315.941406 191.839844 315.929688 191.847656 315.917969 191.855469 C 316.117188 194.292969 316.246094 196.753906 316.289062 199.234375 C 316.296875 199.230469 316.304688 199.222656 316.316406 199.21875 C 359.71875 171.625 384.71875 144.957031 378.179688 129.117188 C 374.464844 120.113281 361.058594 115.816406 340.949219 115.816406 L 340.949219 122.214844 C 358.398438 122.214844 369.8125 125.621094 372.265625 131.558594 Z M 372.265625 131.558594 "/>
</g>
</svg>
