<svg width="100%" height="100%" id="svg" viewBox="0 0 1440 590" xmlns="http://www.w3.org/2000/svg" class="transition duration-300 ease-in-out delay-150"><path d="M 0,600 C 0,600 0,150 0,150 C 87.75119617224877,176.9665071770335 175.50239234449754,203.93301435406698 271,191 C 366.49760765550246,178.06698564593302 469.7416267942584,125.23444976076554 556,116 C 642.2583732057416,106.76555023923446 711.5311004784689,141.12918660287082 815,147 C 918.4688995215311,152.87081339712918 1056.133971291866,130.2488038277512 1166,126 C 1275.866028708134,121.7511961722488 1357.933014354067,135.8755980861244 1440,150 C 1440,150 1440,600 1440,600 Z" stroke="none" stroke-width="0" fill="#abb8c3" fill-opacity="0.4" class="transition-all duration-300 ease-in-out delay-150 path-0"></path><path d="M 0,600 C 0,600 0,300 0,300 C 108.17224880382773,318.8516746411483 216.34449760765546,337.70334928229664 304,328 C 391.65550239234454,318.29665071770336 458.7942583732058,280.0382775119617 555,273 C 651.2057416267942,265.9617224880383 776.4784688995215,290.1435406698565 880,306 C 983.5215311004785,321.8564593301435 1065.2918660287082,329.3875598086124 1155,327 C 1244.7081339712918,324.6124401913876 1342.3540669856459,312.3062200956938 1440,300 C 1440,300 1440,600 1440,600 Z" stroke="none" stroke-width="0" fill="#abb8c3" fill-opacity="0.53" class="transition-all duration-300 ease-in-out delay-150 path-1"></path><path d="M 0,600 C 0,600 0,450 0,450 C 100.01913875598083,467.7799043062201 200.03827751196167,485.5598086124402 296,485 C 391.96172248803833,484.4401913875598 483.8660287081341,465.5406698564593 577,453 C 670.1339712918659,440.4593301435407 764.4976076555023,434.27751196172244 849,438 C 933.5023923444977,441.72248803827756 1008.1435406698565,455.34928229665076 1105,459 C 1201.8564593301435,462.65071770334924 1320.9282296650717,456.32535885167465 1440,450 C 1440,450 1440,600 1440,600 Z" stroke="none" stroke-width="0" fill="#abb8c3" fill-opacity="1" class="transition-all duration-300 ease-in-out delay-150 path-2"></path></svg>